<svg xmlns="http://www.w3.org/2000/svg" viewBox="0 0 80 80"><path d="M73.1 45.9c-2.9-3.2-4.5-10.4-4.5-10.4s-5.1-23.3-26.9-23.1c-16.4.2-16.7 5.3-16.7 5.3s-3.8 1.7-6.2 1.8c-2.4.2-7.8-.8-7.8-.8s2.4 3 4.4 3.9c2 .9 4.1 1.1 4.1 1.1L14.7 30S9 39.2 6.9 40.7s-4.4.8-4.4.8 2 2.7 4.5 3.5c2.7.8 5.4 1.1 5.4 1.1s-.2 1.7-.3 2.7c-.2 1.1 1.1 3.5 1.1 3.5l1.7-2.1 2.7 3.8s-.5 1.2.3 2.7c.8 1.5 2.7 2.9 2.7 2.9l2.3 4.8 1.1-1.1s5.6 4.5 15 4.5 14-4.1 14-4.1l.8 1.4 1.1-1.1c.5-.5.6-1.4.6-1.4l1.4 1.8s1.4-1.8 1.8-3.3 1.1-4.5 1.1-4.5l.8-.3v3.5l1.7-3.5.8-.3 2.3 2.6 2.4-9.6s2.9.9 4.8.6c2-.5 5.4-2.7 5.4-2.7s-2.9.4-4.9-1zM25 51.6v-3.5l9-5.1-9-5.1v-3.5L40 43l-15 8.6zm30 0H40v-3h15v3z" fill-rule="evenodd" clip-rule="evenodd" fill="#40a778"/></svg>